# xmcd
#
# Track frame offsets: 
#        150
#        11725
#        25048
#        40404
#        53569
#        67609
#        82863
#        97037
#        108364
#        127232
#        138462
#        151416
#        163632
#        174316
#        185500
#        196224
#        207350
#        219624
#
# Disc length: 3091 seconds
#
# Revision: 2
# Processed by: cddbd v1.5.2PL0 Copyright (c) Steve Scherf et al.
# Submitted via: ExactAudioCopy v1.0b1
#
DISCID=f10c1112
DTITLE=Various Artist - Swingin' Swanee - Topsy Turvy
DYEAR=2010
DGENRE=Swing
TTITLE0=Gene Sedric - The Joint Is Jumpin' (1938)
TTITLE1=Helen Humes - Jumpin' on Sugar Hill (1947)
TTITLE2=Lucky Millinder - Apollo Jump (1941)
TTITLE3=Nellie Lutcher - Fine Brown Frame (1947)
TTITLE4=Wingy Manone - Tar Paper Stop (1930)
TTITLE5=Hot Lips Page - Miss Martingale (1944)
TTITLE6=LaVern Baker - Gimme A Pigfoot (1958)
TTITLE7=Edmond Hall - Opus 15 (1944)
TTITLE8=Mezzrow-Bechet - Funky Butt (1947)
TTITLE9=Midge Williams - Rosie The Redskin (1938)
TTITLE10=Duke Ellington - Chocolate Shake (1941)
TTITLE11=Jimmie Lunceford - Le Jazz Hot (1939)
TTITLE12=Vernon Dilworth - Shorty (1952)
TTITLE13=Kate Smith - Sixteen Tons (1958)
TTITLE14=Jimmy Rushing - Hi-Ho Silvester (1951)
TTITLE15=Paul Williams - House Rocker (1949)
TTITLE16=Earl Hines - Topsy Turvy (1940)
TTITLE17=Henry Busse - Ali Baba's Alibi (1944)
EXTD=
EXTT0=
EXTT1=
EXTT2=
EXTT3=
EXTT4=
EXTT5=
EXTT6=
EXTT7=
EXTT8=
EXTT9=
EXTT10=
EXTT11=
EXTT12=
EXTT13=
EXTT14=
EXTT15=
EXTT16=
EXTT17=
PLAYORDER=
